<?xml version="1.0" standalone="no"?>
<!DOCTYPE svg PUBLIC "-//W3C//DTD SVG 20010904//EN"
 "http://www.w3.org/TR/2001/REC-SVG-20010904/DTD/svg10.dtd">
<svg version="1.0" xmlns="http://www.w3.org/2000/svg"
 width="234.000000pt" height="274.000000pt" viewBox="0 0 234.000000 274.000000"
 preserveAspectRatio="xMidYMid meet">

<g transform="translate(0.000000,274.000000) scale(0.100000,-0.100000)"
fill="#000000" stroke="none">
<path d="M703 2722 c-7 -4 -24 -33 -38 -64 -80 -174 23 -387 207 -432 41 -9
58 3 84 58 29 62 32 168 8 240 -22 63 -100 148 -161 174 -68 28 -86 33 -100
24z"/>
<path d="M1564 2701 c-136 -62 -212 -228 -170 -373 8 -30 25 -67 37 -82 19
-24 26 -27 58 -21 80 15 173 94 215 184 32 70 29 188 -7 259 -25 47 -31 52
-60 52 -17 0 -51 -9 -73 -19z"/>
<path d="M1153 2408 c-12 -13 -34 -49 -48 -81 -51 -111 -33 -252 44 -338 l38
-43 36 49 c87 117 88 277 4 386 -40 52 -48 55 -74 27z"/>
<path d="M1712 2179 c-58 -11 -137 -56 -174 -98 -43 -49 -80 -133 -81 -189
l-2 -47 52 2 c140 6 267 134 280 284 6 66 9 65 -75 48z"/>
<path d="M573 2130 c18 -149 147 -277 287 -283 l55 -2 -3 40 c-6 82 -32 137
-96 201 -67 67 -126 94 -204 94 l-45 0 6 -50z"/>
<path d="M93 2091 c-55 -27 -63 -34 -63 -59 0 -43 46 -126 96 -172 69 -64 124
-85 219 -85 71 0 86 4 135 32 49 27 55 34 52 59 -5 48 -50 130 -92 168 -65 59
-115 79 -205 83 -73 4 -86 1 -142 -26z"/>
<path d="M2026 2096 c-94 -40 -174 -132 -192 -223 -5 -25 -1 -33 23 -50 44
-32 102 -47 176 -46 153 2 297 128 297 260 0 35 -87 75 -175 80 -58 3 -80 -1
-129 -21z"/>
<path d="M455 1667 c-52 -21 -89 -44 -113 -70 l-23 -24 40 -34 c54 -47 121
-69 209 -69 85 0 158 28 207 81 l30 31 -30 24 c-64 53 -105 68 -200 71 -55 1
-102 -2 -120 -10z"/>
<path d="M1685 1660 c-27 -11 -67 -34 -88 -51 l-38 -31 22 -24 c41 -43 124
-77 203 -82 89 -5 149 12 220 65 l50 36 -34 28 c-60 51 -118 72 -205 76 -62 2
-91 -1 -130 -17z"/>
<path d="M267 1370 c-93 -24 -174 -90 -214 -177 -35 -77 -29 -102 32 -133 42
-21 64 -25 140 -25 81 0 95 3 143 29 29 16 70 48 91 71 46 50 86 147 71 174
-24 45 -181 81 -263 61z"/>
<path d="M1963 1370 c-51 -11 -122 -46 -129 -65 -12 -29 28 -115 77 -169 52
-58 110 -88 196 -104 46 -8 60 -6 135 22 l83 31 -2 48 c-2 53 -26 99 -84 155
-43 43 -90 66 -157 81 -59 12 -60 12 -119 1z"/>
<path d="M803 1296 c-102 -32 -179 -110 -213 -215 -12 -38 -20 -79 -18 -92 3
-22 7 -24 53 -21 139 7 271 137 283 277 l5 65 -34 -1 c-19 0 -53 -6 -76 -13z"/>
<path d="M1453 1258 c16 -155 154 -288 299 -288 l41 0 -7 55 c-17 147 -132
261 -286 281 l-53 7 6 -55z"/>
<path d="M786 894 c-11 -10 -16 -34 -16 -68 0 -90 -20 -86 408 -86 359 0 373
1 392 20 14 14 20 33 20 65 0 32 -6 51 -20 65 -19 19 -33 20 -394 20 -327 0
-377 -2 -390 -16z"/>
<path d="M785 644 c-12 -12 -15 -31 -13 -72 5 -87 -11 -84 423 -77 415 7 395
3 395 82 0 30 -6 49 -20 63 -19 19 -33 20 -394 20 -332 0 -376 -2 -391 -16z"/>
<path d="M788 399 c-14 -8 -18 -23 -18 -67 0 -32 5 -63 12 -70 9 -9 111 -12
400 -12 373 0 388 1 398 19 15 29 12 93 -6 119 l-15 22 -377 0 c-237 0 -383
-4 -394 -11z"/>
<path d="M950 151 c0 -15 90 -92 123 -106 113 -47 240 -14 312 81 l26 34 -230
0 c-127 0 -231 -4 -231 -9z"/>
</g>
</svg>
